PathFileType	4	(X/Y/Z)	C:/Users/beibeiliu/ov580/test_trc\sequence.35_training_dense_left.trc
DataRate	CameraRate	NumFrames	NumMarkers	Units	OrigDataRate	OrigDataStartFrame	OrigNumFrames
120	120	16	19	mm	120	97	169
Frame#	Time	ThumbCMC			ThumbMCP			ThumbIP			ThumbTip			IndexMCP			IndexPIP			IndexTip			MiddleMCP			MiddlePIP			MiddleTip			RingMCP			RingPIP			RingTip			PinkyMCP			PinkyPIP			PinkyTip			BackHand1			BackHand2			BackHand3	
		X0	Y0	Z0	X1	Y1	Z1	X2	Y2	Z2	X3	Y3	Z3	X4	Y4	Z4	X5	Y5	Z5	X6	Y6	Z6	X7	Y7	Z7	X8	Y8	Z8	X9	Y9	Z9	X10	Y10	Z10	X11	Y11	Z11	X12	Y12	Z12	X13	Y13	Z13	X14	Y14	Z14	X15	Y15	Z15	X16	Y16	Z16	X17	Y17	Z17	X18	Y18	Z18	
96	0.8	-191.396	70.3	35.7692	-177.445	69.1275	10.6862	-167.291	73.7124	-13.5761	-162.966	73.4767	-30.0368	-210.562	92.1446	-22.7819	-207.709	98.671	-45.1483	-209.026	102.495	-68.1972	-227.834	74.4725	-29.4118	-223.703	72.5399	-57.3875	-214.501	63.9337	-79.3344	-237.528	57.9862	-28.4933	-231.79	51.7544	-51.7468	-220.337	41.4802	-68.3438	-248.095	37.4549	-17.7172	-246.184	30.4457	-37.0016	-243.706	22.938	-54.123	-242.542	58.412	19.3786	-242.228	56.2008	44.4343	-220.294	77.6499	35.6879	
97	0.808333	-209.408	78.8137	39.0127	-194.692	83.6341	14.1253	-190.86	88.2453	-7.0161	-184.748	94.7502	-30.0795	-233.062	96.9246	-17.8329	-229.467	101.455	-46.0707	-224.767	102.782	-68.844	-244.207	73.4768	-28.5031	-231.67	73.5484	-56.842	-210.195	63.9702	-71.4249	-250.158	56.9897	-25.9015	-241.994	51.1978	-49.7379	-222.045	46.4008	-64.3429	-255.148	35.2321	-14.4885	-252.835	31.9601	-37.4076	-244.529	26.8697	-56.5821	-253.427	57.3545	21.9538	-250.319	48.8501	49.3787	-241.654	76.6487	34.5799	
98	0.816667	-233.275	89.2067	40.9712	-218.475	98.1057	16.3138	-217.906	103.886	-9.25243	-215.05	105.411	-27.3291	-261.201	90.3701	-18.7437	-256.345	96.3732	-46.6346	-247.337	98.3065	-66.989	-262.796	68.3302	-28.5095	-251.246	71.6358	-53.1795	-217.588	68.5799	-61.3757	-262.418	48.8578	-25.306	-252.006	48.0752	-47.6577	-229.33	53.6783	-58.0671	-258.062	29.7288	-13.8503	-253.552	28.9652	-36.8146	-239.063	29.7494	-56.0088	-264.999	47.4363	21.3888	-260.654	41.774	49.5033	-260.603	73.1419	39.5292	
99	0.825	-255.788	85.7493	37.4387	-242.936	100.347	14.3086	-238.172	108.134	-5.3449	-232.389	110.297	-24.9908	-281.856	79.5162	-21.5209	-279.324	84.9623	-44.7446	-262.099	91.2405	-66.2875	-276.88	56.123	-26.5719	-263.71	63.1298	-54.6658	-232.655	72.4495	-56.3327	-268.705	38.5744	-25.8301	-258.285	45.7398	-47.3774	-236.114	58.2132	-53.5302	-258.071	25.3187	-10.9991	-250.637	23.7349	-33.9784	-235.751	33.8375	-48.0891	-271.802	36.3011	23.8421	-267.973	37.0333	47.819	-278.064	61.1507	39.7984	
100	0.833333	-258.218	81.7718	44.0844	-245.536	99.3075	17.0445	-239.822	104.654	-2.34268	-232.188	108.286	-23.3585	-287.877	74.7455	-16.0939	-285.257	79.2167	-41.6806	-263.342	86.7189	-61.9216	-284.052	50.1298	-27.4127	-273.905	56.1921	-51.9556	-243.731	70.8462	-53.5966	-272.707	35.1636	-19.5672	-263.632	41.9089	-44.1536	-238.36	55.739	-50.0647	-255.636	17.7286	-11.2792	-249.441	23.091	-32.9687	-233.223	36.1386	-44.7423	-272.744	31.7808	24.9597	-267.851	33.9824	53.5252	-279.853	58.8928	40.1625	
101	0.841667	-254.703	81.2798	40.673	-238.568	90.5676	19.6898	-232.652	96.7207	-2.01931	-224.591	100.986	-22.1876	-288.052	75.3639	-12.3005	-285.833	81.2224	-37.2106	-260.333	84.9132	-57.0228	-285.787	51.1825	-18.6499	-275.54	55.3213	-49.2836	-247.646	62.9294	-51.0485	-276.804	34.9521	-17.6674	-263.936	40.0338	-44.155	-241.979	52.3004	-46.468	-259.667	16.8328	-10.184	-253.576	23.2648	-30.907	-232.88	37.0953	-41.0491	-273.532	31.1365	28.7072	-266.447	29.8117	50.8491	-280.273	57.9504	40.9278	
102	0.85	-252.658	82.4133	41.0266	-237.25	93.5579	16.0312	-230.598	97.5957	-2.93448	-223.141	100.244	-24.3087	-292.037	78.4465	-11.8266	-288.186	83.2802	-37.1941	-266.104	84.7255	-52.4055	-290.181	51.1233	-19.1266	-282.88	60.4832	-46.6593	-251.358	65.5391	-48.5142	-278.434	34.1778	-16.4604	-268.278	44.1884	-41.7219	-243.024	52.7232	-42.5765	-264.001	21.1221	-8.77329	-255.792	28.6177	-32.3299	-234.442	40.74	-36.6695	-273.815	31.3163	28.3418	-267.248	33.8998	52.1349	-278.448	56.2565	42.3014	
103	0.858333	-259.56	80.2691	40.495	-248.426	94.4681	17.338	-243.431	104.893	-3.34187	-238.842	108.596	-25.7093	-299.335	70.1074	-10.3497	-296.983	75.4787	-38.2954	-273.266	85.1809	-51.7429	-293.864	50.0568	-19.3811	-283.246	57.8218	-47.4096	-257.763	69.4068	-45.0888	-281.416	37.5775	-18.3661	-269.7	47.6257	-40.6014	-244.187	60.3321	-33.6499	-265.47	23.1943	-12.761	-255.738	36.0015	-32.2128	-236.669	53.8524	-28.6603	-274.461	31.6018	27.0081	-267.934	32.9467	51.1063	-281.4	54.4092	42.1434	
104	0.866667	-271.726	80.1837	42.8559	-264.961	95.5457	15.8164	-263.489	108.765	-3.07278	-261.799	115.786	-26.127	-306.08	61.3346	-12.0187	-302.216	65.5837	-40.9522	-280.009	80.4289	-52.9214	-291.784	43.9565	-22.9518	-282.514	56.7095	-48.2273	-257.844	76.3512	-35.214	-276.183	35.6333	-25.1894	-264.907	51.4071	-40.0475	-246.858	69.1552	-23.4841	-258.962	27.2728	-11.8701	-250.368	44.5222	-29.5961	-236.79	63.0156	-17.2228	-274.269	26.8208	25.6082	-266.299	27.8067	54.2309	-286.214	52.76	43.013	
105	0.875	-279.186	78.0854	39.957	-272.356	96.4123	18.2073	-273.582	105.19	-3.30356	-272.48	115.869	-17.9077	-307.47	58.3093	-12.3976	-305.027	58.6585	-38.9599	-286.475	81.3578	-53.602	-291.307	46.0337	-23.8553	-279.755	58.2186	-48.0213	-260.215	81.0017	-32.5699	-269.737	39.0442	-20.72	-257.457	62.3447	-35.6597	-246.318	75.8319	-11.4135	-249.053	33.4787	-14.9022	-241.314	55.3586	-23.8831	-242.638	70.7826	-3.96087	-273.194	30.7942	26.2242	-267.102	31.3768	53.6318	-286.48	46.9453	37.6069	
106	0.883333	-281.171	82.8662	41.1388	-273.938	100.844	19.9471	-274.497	107.953	-3.84897	-272.741	115.948	-25.4606	-304.463	55.1638	-16.0179	-303.546	58.7877	-42.0742	-286.493	78.1207	-54.8162	-283.828	43.8395	-28.4435	-272.651	59.152	-48.1242	-254.223	81.5243	-30.1751	-262.597	42.9215	-21.9524	-248.385	63.614	-33.0984	-241.822	77.3472	-9.94003	-243.248	43.7959	-15.8671	-232.105	64.3905	-15.6118	-238.359	73.7057	11.4223	-265.946	30.6384	22.9746	-262.537	33.068	53.5968	-286.528	50.0891	40.1229	
107	0.891667	-276.881	81.6818	41.189	-271.528	99.0414	13.7635	-269.951	107.145	-3.59218	-268.538	116.69	-25.0678	-300.505	57.172	-13.431	-299.787	57.7054	-42.3716	-282.374	76.0105	-56.9706	-278.664	44.0437	-29.0243	-267.345	60.5602	-49.7366	-251.143	80.1434	-35.9491	-255.513	44.0829	-24.1542	-241.213	64.0221	-33.9443	-240.269	80.6299	-8.90211	-237.194	45.2244	-14.0405	-230.459	67.2695	-11.9237	-238.649	74.7033	12.1431	-262.159	30.2983	23.0946	-260.533	34.1104	52.5564	-285.363	48.2689	37.7724	
108	0.9	-276.708	81.3115	40.4025	-268.104	96.1787	14.6265	-267.99	108.068	-4.31675	-263.85	115.991	-22.124	-298.771	56.8051	-14.9521	-298.866	57.6445	-43.3791	-283.742	78.991	-60.0601	-279.811	43.4466	-29.2033	-265.744	57.9616	-51.762	-250.646	81.2464	-39.92	-252.771	43.3371	-27.2952	-239.542	62.8387	-35.0835	-236.7	79.7051	-10.7429	-233.617	45.1789	-12.8923	-226.185	68.9993	-8.78166	-236.965	77.3248	10.448	-263.889	31.2903	22.9485	-262.743	32.6148	49.8921	-282.174	48.6383	34.8424	
109	0.908333	-277.946	78.9062	36.634	-270.842	99.563	15.4834	-266.236	106.268	-4.30398	-262.974	114.998	-25.52	-296.515	53.9793	-18.6836	-299.21	55.9399	-42.2193	-287.716	72.3292	-61.3088	-277.777	40.6295	-24.3715	-267.94	49.9442	-54.0738	-248.49	71.6406	-49.8855	-254.141	39.8102	-25.1467	-240.01	61.7369	-36.0248	-233.08	77.7217	-19.0587	-231.626	42.4481	-13.4097	-229.027	67.0906	-11.9818	-233.833	77.6446	10.2563	-262.203	29.8834	25.6758	-264.551	31.147	52.2012	-284.852	47.2047	37.3915	
110	0.916667	-281.334	80.9974	40.1531	-272.648	100.153	13.3032	-267.778	106.675	-5.72412	-262.274	111.936	-24.6131	-297.016	54.5518	-18.5484	-296.38	55.3447	-46.5892	-288.871	69.1476	-64.5516	-279.191	38.0103	-26.904	-268.062	42.9327	-54.3472	-249.175	70.468	-57.2951	-256.597	37.59	-23.7366	-242.547	54.5923	-39.5855	-231.902	76.359	-25.8061	-235.479	39.6174	-12.1199	-227.998	61.5342	-16.1725	-233.749	76.3257	1.14069	-262.921	29.2474	25.5932	-264.914	30.5041	52.1544	-287.769	47.2524	36.2163	
111	0.925	-281.764	80.7547	38.2185	-271.798	99.0616	19.1578	-268.325	108.426	-2.04596	-262.619	117.822	-20.9824	-296.674	56.1975	-19.6911	-297.319	55.062	-45.5123	-285.812	69.2136	-67.877	-280.977	37.3349	-26.2678	-270.088	38.0464	-52.4878	-249.378	62.2794	-62.7168	-255.219	34.5621	-22.6661	-242.49	48.2967	-41.972	-232.194	72.0302	-33.4139	-235.575	31.6784	-8.68151	-225.176	50.5255	-23.8072	-227.062	76.5776	-8.57339	-265.736	31.676	20.7838	-267.539	33.2308	50.7316	-284.79	46.8827	36.1351	
